PathFileType	4	(x/y/z)	S09_P20_T26
DataRate	CameraRate	NumFrames	NumMarkers	Units	OrigDataRate	OrigDataStartFrame	OrigNumFrames
240	240	7	51	mm	240	148	394
Frame#	Time	Sternum			R.Acromium			L.Acromium			Top.Head			R.ASIS			L.ASIS			R.PSIS			L.PSIS			R.Great.Tro			L.Great.Tro			R.Iliac.Crest			L.Iliac.Crest			V.Sacral			R.Thigh.Upper.Post			R.Thigh.Lower.Ant			R.Thigh.Lower.Post			R.Thigh.Upper.Ant			R.Knee.Lat			R.Knee.Med			R.Shank.Upper.Post			R.Shank.Lower.Ant			R.Shank.Lower.Post			R.Shank.Upper.Ant			R.Ankle.Lat			R.Ankle.Med			R.Heel.Upper			R.Heel.Med			R.Heel.Lat			R.Toe.Lat			R.Toe.Med			R.Toe.Tip			L.Thigh.Upper.Post			L.Thigh.Lower.Ant			L.Thigh.Lower.Post			L.Thigh.Upper.Ant			L.Knee.Lat			L.Knee.Med			L.Shank.Upper.Post			L.Shank.Lower.Ant			L.Shank.Lower.Post			L.Shank.Upper.Ant			L.Ankle.Lat			L.Ankle.Med			L.Heel.Upper			L.Heel.Med			L.Heel.Lat			L.Toe.Lat			L.Toe.Med			L.Toe.Tip			Cervical.Spine			Back			
		X1	Y1	Z1	X2	Y2	Z2	X3	Y3	Z3	X4	Y4	Z4	X5	Y5	Z5	X6	Y6	Z6	X7	Y7	Z7	X8	Y8	Z8	X9	Y9	Z9	X10	Y10	Z10	X11	Y11	Z11	X12	Y12	Z12	X13	Y13	Z13	X14	Y14	Z14	X15	Y15	Z15	X16	Y16	Z16	X17	Y17	Z17	X18	Y18	Z18	X19	Y19	Z19	X20	Y20	Z20	X21	Y21	Z21	X22	Y22	Z22	X23	Y23	Z23	X24	Y24	Z24	X25	Y25	Z25	X26	Y26	Z26	X27	Y27	Z27	X28	Y28	Z28	X29	Y29	Z29	X30	Y30	Z30	X31	Y31	Z31	X32	Y32	Z32	X33	Y33	Z33	X34	Y34	Z34	X35	Y35	Z35	X36	Y36	Z36	X37	Y37	Z37	X38	Y38	Z38	X39	Y39	Z39	X40	Y40	Z40	X41	Y41	Z41	X42	Y42	Z42	X43	Y43	Z43	X44	Y44	Z44	X45	Y45	Z45	X46	Y46	Z46	X47	Y47	Z47	X48	Y48	Z48	X49	Y49	Z49	X50	Y50	Z50	X51	Y51	Z51	

148	0.6125	-486.04	1182.2	315.77	-628.55	1429.1	463.1	-620.35	1428.3	151.53	-632.22	1735.7	297.07	-534.49	1016.3	403.71	-561.17	1011.1	159.31	-762.74	1036	351.79	-764.45	1036.8	261.74	-601.05	933.03	483.43	-645.37	920.4	98.254	-619.94	1093.2	459.43	-665.16	1108.4	137.2	-781.5	1000.1	305.5	-551.47	686.99	453.14	-466.99	605.68	396.91	-542.36	597.86	422	-482.19	689.33	430.74	-473.29	527.99	389.82	-496.15	520.54	270.1	-523.96	343.68	401.68	-452.6	291.5	378.82	-519.42	267.98	389.14	-462.59	363.64	393.84	-476.92	88.348	362.15	-453.42	105.04	276.37	-537.48	70.813	311.26	-522.52	41.244	282.18	-531.62	39.605	346.39	-370.87	47.474	396.31	-326.91	62.563	293.37	-286.44	90.843	337.26	-717.6	667.71	152.9	-642.95	566.68	128.97	-702	576.91	162.58	-654.01	654.96	115.02	-673.97	496.49	137.05	-613.73	486.04	260.24	-788.57	436.33	142.88	-807.42	327.31	144.53	-842.23	381.38	154	-753.32	383.23	134.84	-969.48	222.64	180.72	-947.27	206.05	269.69	-1015.9	270.22	242.01	-1026.4	254.14	279.93	-1047.3	257.92	221.29	-1007.6	91.586	169.88	-967.51	68.993	274.56	-946.45	36.273	215.69	-710.75	1477.8	314.92	-751.45	1210.1	297.35
149	0.61667	-480.47	1182.8	315.99	-622.87	1429.5	463.44	-615.31	1428.5	151.86	-626.77	1736	297.23	-528.82	1016.8	404.03	-555.53	1011.2	159.67	-757.14	1036.3	352	-758.92	1036.6	261.95	-595.57	933.7	483.9	-639.41	920.16	98.668	-614.28	1093.8	459.63	-659.71	1108.2	137.46	-775.9	1000.1	305.85	-546.48	687.21	453.7	-462.16	605.71	397.55	-537.59	598.11	422.52	-477.15	689.36	431.48	-468.76	527.89	390.31	-491.15	520.68	270.54	-520.84	343.91	402.05	-449.92	291.15	379.14	-516.95	268.19	389.42	-459.29	363.37	394.22	-476.24	88.274	362.31	-452.59	104.85	276.53	-536.96	71.127	311.38	-522.24	41.538	282.23	-531.35	39.853	346.47	-370.39	46.656	396.57	-326.39	61.237	293.36	-285.52	88.993	337.28	-708.88	666.8	152.59	-633.32	566.61	127.86	-692.2	576.04	161.81	-645.32	654.83	114.33	-663.47	496.61	135.53	-602.45	485.58	258.69	-777.85	437.58	141.72	-797.75	328.72	143.09	-832.01	383.12	152.88	-743.14	384.15	133.35	-960.17	225.42	179.34	-938.2	208.55	268.45	-1004.7	274.6	240.45	-1015.7	258.95	278.47	-1036.6	262.97	219.83	-1001.5	94.762	169.2	-961.64	71.561	273.68	-942.01	36.198	214.9	-705.43	1478	315.41	-745.89	1210.2	297.94
150	0.62083	-474.93	1183.3	316.19	-617.2	1430	463.75	-610.25	1428.8	152.18	-621.31	1736.3	297.4	-523.22	1017.3	404.37	-549.92	1011.3	160.03	-751.6	1036.6	352.19	-753.45	1036.5	262.14	-590.17	934.34	484.36	-633.51	919.95	99.089	-608.69	1094.3	459.8	-654.29	1108	137.69	-770.36	1000.2	306.18	-541.63	687.38	454.22	-457.45	605.68	398.2	-532.96	598.33	423	-472.22	689.34	432.22	-464.37	527.76	390.79	-486.25	520.81	270.98	-517.85	344.13	402.38	-447.34	290.8	379.46	-514.59	268.4	389.64	-456.11	363.09	394.58	-475.61	88.222	362.45	-451.81	104.68	276.67	-536.49	71.422	311.47	-521.97	41.819	282.28	-531.1	40.096	346.54	-369.97	45.934	396.82	-325.93	59.993	293.34	-284.66	87.244	337.28	-700.12	665.96	152.27	-623.66	566.62	126.77	-682.39	575.26	161.04	-636.59	654.78	113.66	-652.91	496.82	134.03	-591.19	485.26	257.21	-767.03	438.83	140.51	-787.91	330.13	141.7	-821.67	384.84	151.75	-732.82	385.08	131.89	-950.65	228.17	177.99	-929	211.06	267.23	-993.57	278.76	238.89	-1005	263.5	276.98	-1025.8	267.76	218.33	-994.73	97.918	168.42	-955.26	74.142	272.73	-936.94	36.254	214.06	-700.12	1478.3	315.89	-740.36	1210.5	298.5
151	0.625	-469.44	1183.9	316.36	-611.54	1430.4	464.04	-605.17	1429.1	152.48	-615.86	1736.6	297.57	-517.67	1017.9	404.72	-544.35	1011.3	160.39	-746.1	1037	352.37	-748.02	1036.4	262.33	-584.83	934.96	484.82	-627.68	919.76	99.519	-603.18	1094.9	459.96	-648.91	1107.7	137.9	-764.88	1000.4	306.5	-536.91	687.53	454.69	-452.88	605.61	398.83	-528.47	598.53	423.43	-467.41	689.27	432.96	-460.11	527.62	391.26	-481.47	520.92	271.39	-514.97	344.35	402.64	-444.86	290.46	379.75	-512.34	268.6	389.82	-453.05	362.8	394.91	-475.02	88.194	362.56	-451.08	104.52	276.78	-536.04	71.699	311.54	-521.72	42.086	282.31	-530.87	40.337	346.6	-369.6	45.304	397.06	-325.5	58.826	293.29	-283.86	85.59	337.26	-691.32	665.19	151.94	-613.97	566.73	125.71	-672.55	574.59	160.28	-627.83	654.81	113	-642.28	497.12	132.57	-579.97	485.09	255.8	-756.11	440.06	139.28	-777.92	331.52	140.37	-811.21	386.53	150.59	-722.38	386.02	130.48	-940.95	230.88	176.68	-919.66	213.56	266.06	-982.43	282.69	237.35	-994.23	267.76	275.49	-1014.9	272.23	216.8	-987.4	101.02	167.55	-948.35	76.706	271.71	-931.18	36.461	213.16	-694.81	1478.5	316.34	-734.85	1210.7	299.02
152	0.62917	-463.99	1184.5	316.5	-605.88	1430.8	464.31	-600.07	1429.4	152.76	-610.41	1736.9	297.74	-512.18	1018.5	405.09	-538.81	1011.4	160.75	-740.64	1037.3	352.55	-742.63	1036.3	262.52	-579.55	935.55	485.27	-621.9	919.62	99.958	-597.72	1095.5	460.1	-643.56	1107.5	138.09	-759.46	1000.5	306.81	-532.3	687.64	455.12	-448.42	605.49	399.43	-524.12	598.7	423.81	-462.71	689.15	433.68	-455.97	527.45	391.71	-476.83	521.01	271.77	-512.21	344.56	402.85	-442.49	290.12	380.02	-510.18	268.8	389.94	-450.1	362.52	395.22	-474.46	88.187	362.65	-450.4	104.36	276.86	-535.62	71.961	311.6	-521.49	42.337	282.33	-530.65	40.577	346.64	-369.28	44.762	397.28	-325.12	57.728	293.21	-283.12	84.026	337.2	-682.49	664.51	151.61	-604.25	566.94	124.67	-662.7	574.02	159.53	-619.05	654.92	112.36	-631.61	497.51	131.13	-568.8	485.09	254.46	-745.13	441.28	138.02	-767.79	332.89	139.09	-800.64	388.19	149.41	-711.84	386.96	129.12	-931.06	233.53	175.42	-910.19	216.03	264.94	-971.37	286.34	235.84	-983.55	271.7	274.01	-1004.1	276.38	215.28	-979.47	104.04	166.59	-940.9	79.225	270.63	-924.69	36.83	212.2	-689.49	1478.8	316.77	-729.38	1211	299.52
153	0.63333	-458.57	1185	316.62	-600.24	1431.2	464.56	-594.95	1429.8	153.03	-604.97	1737.2	297.92	-506.73	1019	405.46	-533.3	1011.5	161.12	-735.22	1037.6	352.74	-737.28	1036.2	262.72	-574.31	936.1	485.72	-616.18	919.51	100.41	-592.33	1096.1	460.24	-638.25	1107.3	138.28	-754.08	1000.6	307.12	-527.82	687.72	455.5	-444.09	605.32	399.99	-519.89	598.85	424.14	-458.12	688.99	434.36	-451.96	527.26	392.12	-472.35	521.09	272.12	-509.54	344.76	402.99	-440.2	289.79	380.27	-508.1	269	390.01	-447.27	362.24	395.49	-473.93	88.201	362.71	-449.76	104.22	276.9	-535.23	72.209	311.63	-521.27	42.572	282.34	-530.45	40.819	346.68	-369	44.299	397.48	-324.77	56.695	293.1	-282.43	82.546	337.12	-673.63	663.92	151.27	-594.51	567.24	123.67	-652.84	573.56	158.8	-610.25	655.11	111.73	-620.9	498	129.74	-557.7	485.24	253.21	-734.08	442.48	136.74	-757.52	334.23	137.88	-789.98	389.79	148.22	-701.19	387.91	127.82	-921.02	236.1	174.21	-900.59	218.46	263.86	-960.4	289.72	234.4	-972.95	275.29	272.58	-993.24	280.16	213.77	-970.93	106.94	165.53	-932.9	81.672	269.49	-917.44	37.369	211.17	-684.18	1479.1	317.19	-723.93	1211.4	299.98
154	0.6375	-453.19	1185.6	316.72	-594.61	1431.7	464.78	-589.82	1430.2	153.28	-599.54	1737.5	298.11	-501.34	1019.6	405.85	-527.82	1011.6	161.49	-729.83	1037.9	352.93	-731.97	1036.2	262.94	-569.11	936.62	486.18	-610.5	919.46	100.86	-586.98	1096.7	460.38	-632.96	1107.1	138.46	-748.75	1000.8	307.43	-523.43	687.78	455.83	-439.87	605.11	400.52	-515.77	598.97	424.41	-453.64	688.79	435	-448.05	527.05	392.5	-468.01	521.15	272.43	-506.98	344.95	403.08	-438	289.46	380.47	-506.11	269.19	390.02	-444.53	361.96	395.72	-473.42	88.233	362.74	-449.16	104.07	276.91	-534.87	72.446	311.64	-521.07	42.792	282.34	-530.25	41.062	346.7	-368.76	43.909	397.66	-324.45	55.722	292.97	-281.78	81.145	337.01	-664.75	663.41	150.92	-584.77	567.65	122.7	-642.97	573.21	158.08	-601.44	655.39	111.13	-610.16	498.57	128.39	-546.68	485.55	252.05	-723	443.65	135.45	-747.13	335.54	136.73	-779.24	391.35	147.02	-690.45	388.85	126.58	-910.84	238.58	173.07	-890.87	220.83	262.83	-949.57	292.81	233.04	-962.44	278.52	271.2	-982.47	283.56	212.31	-961.8	109.7	164.39	-924.32	84.021	268.28	-909.41	38.072	210.05	-678.87	1479.5	317.58	-718.51	1211.7	300.42
